<svg width="122" height="122" viewBox="0 0 122 122" fill="none" xmlns="http://www.w3.org/2000/svg">
<mask id="mask0_180_1920" style="mask-type:alpha" maskUnits="userSpaceOnUse" x="0" y="0" width="122" height="122">
<rect width="122" height="122" fill="#00D415"/>
</mask>
<g mask="url(#mask0_180_1920)">
<path d="M61.0005 104.086C71.8571 94.6088 80.231 85.1605 86.1224 75.7413C92.0138 66.3221 94.9595 58.3679 94.9595 51.8787C94.9595 41.6168 91.704 33.2174 85.1931 26.6803C78.6823 20.1431 70.6183 16.8745 61.0012 16.8745C51.384 16.8745 43.335 20.144 36.8542 26.6829C30.3733 33.2219 27.1328 41.6254 27.1328 51.8933C27.1328 58.3866 30.0839 66.3394 35.9862 75.7516C41.8885 85.1639 50.2266 94.6088 61.0005 104.086ZM61.0005 109.707C48.1847 98.3567 38.6491 87.8129 32.3937 78.0758C26.1384 68.3388 23.0107 59.5946 23.0107 51.8433C23.0107 39.9278 26.8419 30.4338 34.5042 23.3612C42.1664 16.2887 51.0028 12.7524 61.0132 12.7524C71.0237 12.7524 79.871 16.289 87.5552 23.362C95.2394 30.435 99.0816 39.932 99.0816 51.8529C99.0816 59.5923 95.9387 68.3319 89.653 78.0716C83.3672 87.8115 73.8164 98.3567 61.0005 109.707Z" fill="#00D415"/>
<circle cx="61" cy="49" r="12" fill="#00D415"/>
</g>
</svg>
