<svg width="36" height="24" viewBox="0 0 36 24" fill="none" xmlns="http://www.w3.org/2000/svg">
<path d="M10.6302 3.99346L9.14502 1.27606L10.6586 0.963046L12.1438 3.67391L10.6302 3.99346ZM17.1867 2.69563V0H18.8133V2.69563H17.1867ZM25.3697 3.99346L23.8562 3.67391L25.3414 0.963046L26.855 1.28259L25.3697 3.99346ZM0.700206 23.9782L0.431451 22.8543L10.1316 21.9283C10.654 21.8735 11.117 21.7436 11.5206 21.5383C11.9243 21.3331 12.1992 21.0761 12.3454 20.7674L13.8731 17.7718C14.097 17.3631 14.0794 16.9638 13.82 16.5739C13.5607 16.1841 13.1139 15.9015 12.4798 15.7261L10.7505 19.0565L8.9894 18.7043L13.2825 10.413C13.4145 10.1406 13.4275 9.87319 13.3214 9.61087C13.2153 9.34855 12.9784 9.16087 12.6106 9.04783L5.53085 17.3435C5.13478 17.8029 4.57093 18.1685 3.8393 18.4402C3.10766 18.7119 2.31827 18.8478 1.47112 18.8478H0V17.7174H1.47112C1.97329 17.7174 2.44461 17.639 2.88509 17.4822C3.32554 17.3255 3.66167 17.1046 3.8935 16.8195L11.9953 7.33694L13.4452 7.84564C14.2491 8.13983 14.7884 8.56483 15.0631 9.12063C15.3377 9.67645 15.3348 10.2319 15.0542 10.7869L13.0279 14.6652C14.1407 14.942 14.9428 15.413 15.4344 16.0783C15.9259 16.7435 15.9925 17.4275 15.6342 18.1304L14.0711 21.1261C13.8047 21.642 13.3397 22.0721 12.676 22.4163C12.0124 22.7605 11.2538 22.9725 10.4004 23.0522L0.700206 23.9782ZM35.2998 24L25.5996 23.0739C24.7462 22.9942 23.9876 22.7822 23.324 22.438C22.6603 22.0938 22.1953 21.6637 21.9289 21.1478L20.3658 18.1521C20.0075 17.4493 20.0741 16.7652 20.5656 16.1C21.0572 15.4348 21.8593 14.9637 22.9721 14.6869L20.9458 10.8087C20.6652 10.2536 20.6623 9.69819 20.9369 9.14239C21.2116 8.58659 21.7509 8.16159 22.5548 7.86737L24.0047 7.35868L32.1065 16.8413C32.3372 17.1263 32.6717 17.3472 33.11 17.504C33.5484 17.6607 34.0213 17.7391 34.5289 17.7391H36V18.8696H34.5289C33.6825 18.8696 32.8933 18.7337 32.1613 18.4619C31.4293 18.1902 30.8652 17.8246 30.4691 17.3652L23.3894 9.06956C23.0216 9.1826 22.7847 9.37028 22.6786 9.6326C22.5725 9.89492 22.5855 10.1623 22.7175 10.4348L27.0106 18.7261L25.2495 19.0783L23.5202 15.7478C22.8861 15.9232 22.4393 16.2058 22.1799 16.5957C21.9206 16.9855 21.903 17.3848 22.1269 17.7935L23.6546 20.7891C23.8008 21.0978 24.0757 21.3548 24.4794 21.56C24.883 21.7653 25.346 21.8953 25.8684 21.95L35.5686 22.8761L35.2998 24Z" fill="#00D415"/>
</svg>
