<svg width="20" height="27" viewBox="0 0 20 27" fill="none" xmlns="http://www.w3.org/2000/svg">
<path d="M5.86538 27C4.25213 27 2.87125 26.4704 1.72275 25.4113C0.574251 24.3522 0 23.0777 0 21.5878C0 20.8277 0.188028 20.1198 0.564083 19.464C0.940166 18.8083 1.54274 18.1378 2.37179 17.4527C2.88035 17.0514 3.31785 16.6282 3.68429 16.1833C4.05074 15.7383 4.44443 15.3 4.86538 14.8682C3.61965 13.0561 2.6736 11.1755 2.02721 9.22652C1.38085 7.27752 1.05767 5.34728 1.05767 3.43581C1.05767 2.27229 1.21044 1.40877 1.516 0.845247C1.82156 0.28175 2.27776 0 2.88462 0C3.80557 0 4.76817 0.547292 5.77242 1.64187C6.77669 2.73648 7.63033 4.01148 8.33333 5.46686C8.797 6.43984 9.16506 7.45488 9.4375 8.51199C9.70994 9.56907 9.89744 10.6206 10 11.6665C10.1026 10.6206 10.2954 9.56907 10.5785 8.51199C10.8617 7.45488 11.2276 6.43984 11.6763 5.46686C12.3515 4.01148 13.1966 2.73648 14.2115 1.64187C15.2265 0.547292 16.1944 0 17.1154 0C17.7222 0 18.1784 0.28175 18.484 0.845247C18.7896 1.40877 18.9423 2.27229 18.9423 3.43581C18.9423 5.34728 18.6192 7.27752 17.9728 9.22652C17.3264 11.1755 16.3803 13.0561 15.1346 14.8682C15.5556 15.3 15.9493 15.7383 16.3157 16.1833C16.6822 16.6282 17.1197 17.0514 17.6282 17.4527C18.4573 18.1378 19.0598 18.8083 19.4359 19.464C19.812 20.1198 20 20.8277 20 21.5878C20 23.0777 19.4257 24.3522 18.2772 25.4113C17.1287 26.4704 15.7479 27 14.1346 27C13.0983 27 12.1501 26.8378 11.2901 26.5135L10 26.027L8.70992 26.5135C7.84989 26.8378 6.90171 27 5.86538 27ZM5.99358 25.4189C6.56836 25.4189 7.17519 25.3414 7.81408 25.1863C8.45297 25.0313 9.05019 24.8088 9.60575 24.5189C9.34294 24.3872 9.10257 24.1885 8.88462 23.923C8.66668 23.6574 8.55771 23.4263 8.55771 23.2297C8.55771 23.0189 8.69606 22.8496 8.97275 22.722C9.24947 22.5943 9.59189 22.5304 10 22.5304C10.3867 22.5304 10.7131 22.5993 10.9792 22.7372C11.2452 22.875 11.3782 23.0392 11.3782 23.2297C11.3782 23.4263 11.2692 23.6574 11.0513 23.923C10.8333 24.1885 10.593 24.3872 10.3301 24.5189C10.8857 24.8088 11.4829 25.0313 12.1218 25.1863C12.7607 25.3414 13.3675 25.4189 13.9423 25.4189C15.1517 25.4189 16.1752 25.047 17.0128 24.303C17.8504 23.5591 18.2692 22.654 18.2692 21.5878C18.2692 21.0324 18.1143 20.5206 17.8045 20.0524C17.4947 19.5841 17.0192 19.0956 16.3782 18.5868C16.032 18.3111 15.766 18.075 15.5801 17.8784C15.3942 17.6818 15.1624 17.4162 14.8846 17.0818C13.9295 15.896 13.156 15.1444 12.5641 14.8272C11.9722 14.51 11.1068 14.3514 9.96796 14.3514C8.82907 14.3514 7.96208 14.51 7.367 14.8272C6.77192 15.1444 6.00001 15.896 5.05129 17.0818C4.77351 17.4162 4.54167 17.6818 4.35575 17.8784C4.16986 18.075 3.90385 18.3111 3.55771 18.5868C2.91668 19.0956 2.44125 19.5841 2.13142 20.0524C1.82158 20.5206 1.66667 21.0324 1.66667 21.5878C1.66667 22.654 2.08547 23.5591 2.92308 24.303C3.76069 25.047 4.78419 25.4189 5.99358 25.4189ZM7.5 20.2804C7.27778 20.2804 7.08333 20.1618 6.91667 19.9247C6.75 19.6875 6.66667 19.4108 6.66667 19.0946C6.66667 18.7784 6.75 18.5017 6.91667 18.2645C7.08333 18.0274 7.27778 17.9088 7.5 17.9088C7.72222 17.9088 7.91667 18.0274 8.08333 18.2645C8.25 18.5017 8.33333 18.7784 8.33333 19.0946C8.33333 19.4108 8.25 19.6875 8.08333 19.9247C7.91667 20.1618 7.72222 20.2804 7.5 20.2804ZM12.5 20.2804C12.2778 20.2804 12.0833 20.1618 11.9167 19.9247C11.75 19.6875 11.6667 19.4108 11.6667 19.0946C11.6667 18.7784 11.75 18.5017 11.9167 18.2645C12.0833 18.0274 12.2778 17.9088 12.5 17.9088C12.7222 17.9088 12.9167 18.0274 13.0833 18.2645C13.25 18.5017 13.3333 18.7784 13.3333 19.0946C13.3333 19.4108 13.25 19.6875 13.0833 19.9247C12.9167 20.1618 12.7222 20.2804 12.5 20.2804ZM6.08654 13.722C6.43482 13.4706 6.80875 13.276 7.20833 13.1382C7.60789 13.0003 8.04378 12.9061 8.516 12.8554C8.46044 11.7122 8.28043 10.5552 7.97596 9.38463C7.67146 8.21402 7.26601 7.09459 6.75962 6.02633C6.21046 4.85066 5.59507 3.87516 4.91346 3.09983C4.23182 2.32449 3.57156 1.83142 2.93267 1.62061C2.87711 1.81924 2.8285 2.05894 2.78683 2.33968C2.74517 2.62043 2.72433 2.9554 2.72433 3.34458C2.72433 5.03513 3.01761 6.78243 3.60417 8.5865C4.19069 10.3905 5.01815 12.1024 6.08654 13.722ZM13.9135 13.722C14.9818 12.1024 15.8093 10.3905 16.3958 8.5865C16.9824 6.78243 17.2757 5.03513 17.2757 3.34458C17.2757 2.9554 17.2548 2.62043 17.2132 2.33968C17.1715 2.05894 17.1229 1.81924 17.0673 1.62061C16.4284 1.83142 15.7682 2.32449 15.0865 3.09983C14.4049 3.87516 13.7895 4.85066 13.2404 6.02633C12.7404 7.09459 12.3381 8.21402 12.0337 9.38463C11.7292 10.5552 11.5459 11.7122 11.484 12.8554C11.9434 12.9 12.3729 12.9927 12.7725 13.1336C13.172 13.2745 13.5523 13.4706 13.9135 13.722Z" fill="#00D415"/>
</svg>
