<svg width="124" height="124" viewBox="0 0 124 124" fill="none" xmlns="http://www.w3.org/2000/svg">
<mask id="mask0_180_1930" style="mask-type:alpha" maskUnits="userSpaceOnUse" x="0" y="0" width="124" height="124">
<rect width="123.003" height="123.003" fill="#D9D9D9"/>
</mask>
<g mask="url(#mask0_180_1930)">
<path d="M80.1881 83.8156L83.8151 80.1886L64.0637 60.4348V35.876H58.9385V62.5661L80.1881 83.8156ZM61.5183 107.628C55.1398 107.628 49.143 106.417 43.5278 103.997C37.9126 101.576 33.0282 98.2906 28.8744 94.1408C24.7208 89.991 21.4325 85.1111 19.0095 79.5013C16.5865 73.8913 15.375 67.8971 15.375 61.5188C15.375 55.1403 16.5853 49.1435 19.006 43.5283C21.4268 37.9131 24.7121 33.0287 28.8619 28.8749C33.0117 24.7213 37.8915 21.433 43.5014 19.01C49.1114 16.587 55.1055 15.3755 61.4839 15.3755C67.8624 15.3755 73.8592 16.5858 79.4744 19.0065C85.0896 21.4273 89.974 24.7126 94.1278 28.8624C98.2814 33.0122 101.57 37.892 103.993 43.5019C106.416 49.1119 107.627 55.106 107.627 61.4844C107.627 67.8629 106.417 73.8597 103.996 79.4749C101.575 85.09 98.2901 89.9745 94.1403 94.1282C89.9905 98.2819 85.1107 101.57 79.5008 103.993C73.8908 106.416 67.8967 107.628 61.5183 107.628ZM61.5011 102.503C72.8618 102.503 82.5355 98.5092 90.5221 90.5226C98.5088 82.5359 102.502 72.8623 102.502 61.5016C102.502 50.1409 98.5088 40.4672 90.5221 32.4806C82.5355 24.4939 72.8618 20.5006 61.5011 20.5006C50.1404 20.5006 40.4667 24.4939 32.4801 32.4806C24.4934 40.4672 20.5001 50.1409 20.5001 61.5016C20.5001 72.8623 24.4934 82.5359 32.4801 90.5226C40.4667 98.5092 50.1404 102.503 61.5011 102.503Z" fill="#00D415"/>
</g>
</svg>
